<svg fill="none" height="24" viewBox="0 0 24 24" width="24" xmlns="http://www.w3.org/2000/svg"><g fill="#000"><path clip-rule="evenodd" d="m4.25 5c0-1.51878 1.23122-2.75 2.75-2.75h7.9868c.5638 0 1.093.27157 1.4217.72955l3.0132 4.1979c.2135.29743.3283.65433.3283 1.02045v10.8021c0 1.5188-1.2312 2.75-2.75 2.75h-10c-1.51878 0-2.75-1.2312-2.75-2.75zm2.75-1.25c-.69036 0-1.25.55964-1.25 1.25v14c0 .6904.55964 1.25 1.25 1.25h10c.6904 0 1.25-.5596 1.25-1.25v-10.10295h-3.25c-.4142 0-.75-.33579-.75-.75v-4.39705z" fill-rule="evenodd"/><path d="m15.0857 13.2185c-.2588.3235-.7307.3759-1.0542.1172l-1.2814-1.0252v3.4395c0 .4142-.3358.75-.75.75-.4143 0-.75-.3358-.75-.75v-3.4396l-1.28155 1.0253c-.32345.2587-.79542.2063-1.05417-.1172-.25876-.3234-.20632-.7954.11713-1.0542l2.49729-1.9978c.1273-.1029.2889-.165.4649-.1665h.0064.0024c.1791.0006.3434.0639.4721.1692l2.4939 1.9951c.3235.2588.3759.7308.1172 1.0542z"/></g></svg>