<svg fill="none" height="20" viewBox="0 0 20 20" width="20" xmlns="http://www.w3.org/2000/svg"><g fill="#212121"><path d="m10 6c-.69036 0-1.25-.55964-1.25-1.25s.55964-1.25 1.25-1.25c.6904 0 1.25.55964 1.25 1.25s-.5596 1.25-1.25 1.25z"/><path d="m10 11.25c-.69036 0-1.25-.5596-1.25-1.25 0-.69036.55964-1.25 1.25-1.25.6904 0 1.25.55964 1.25 1.25 0 .6904-.5596 1.25-1.25 1.25z"/><path d="m8.75 15.25c0 .6904.55964 1.25 1.25 1.25.6904 0 1.25-.5596 1.25-1.25s-.5596-1.25-1.25-1.25c-.69036 0-1.25.5596-1.25 1.25z"/></g></svg>